<svg width="28" height="30" viewBox="0 0 28 30" fill="none" xmlns="http://www.w3.org/2000/svg">
<path d="M20.875 10.75C20.875 8.95979 20.1638 7.2429 18.898 5.97703C17.6321 4.71116 15.9152 4 14.125 4C12.3348 4 10.6179 4.71116 9.35203 5.97703C8.08616 7.2429 7.375 8.95979 7.375 10.75C7.375 18.625 4 20.875 4 20.875H24.25C24.25 20.875 20.875 18.625 20.875 10.75Z" fill="#79C141" stroke="#79C141" stroke-width="2" stroke-linecap="round" stroke-linejoin="round"/>
<path d="M16.0712 25.375C15.8734 25.716 15.5895 25.999 15.248 26.1957C14.9064 26.3925 14.5191 26.496 14.125 26.496C13.7308 26.496 13.3435 26.3925 13.002 26.1957C12.6604 25.999 12.3765 25.716 12.1787 25.375" stroke="#79C141" stroke-width="2" stroke-linecap="round" stroke-linejoin="round"/>
</svg>
